<svg width="182" height="30" viewBox="0 0 182 30" fill="none" xmlns="http://www.w3.org/2000/svg">
<path d="M123.973 13.5086V22.7521H127.628V7.11206H123.973V13.5086Z" fill="white"/>
<path d="M115.684 7.11206H112.029V22.7521H115.684V16.3555H121.052L123.974 13.5086H115.684V7.11206Z" fill="white"/>
<path d="M134.06 9.9538H143.998V7.11206H133.515H130.405V22.7521H134.06V16.3555H142.751V13.5086H134.06V9.9538Z" fill="white"/>
<path d="M88.4545 19.9103H80.2772V7.11206H76.6221V19.9103L80.2772 22.7521H88.4545L92.1096 19.9103V7.11206H88.4545V19.9103Z" fill="white"/>
<path d="M98.1581 7.11206H97.4998H94.5029V15.6425H97.3018H98.1581H105.934V19.9103H98.1581V22.7521H105.934H107.085H109.589V12.8008H107.085H105.934H98.1581V9.9538H105.934V7.11206H98.1581Z" fill="white"/>
<path d="M105.932 11.3747H109.587V7.11206L105.932 9.9538V11.3747Z" fill="white"/>
<path d="M94.5029 17.4172V22.752L98.1581 19.9103V17.4172H94.5029Z" fill="white"/>
<path d="M62.5389 7.11206H58.8838V22.7521H62.5389V18.1303H67.8317L70.5824 22.7521H74.2375L71.4868 18.1303H74.2964V7.11206H62.5443H62.5389ZM70.6359 15.2886H62.5389V9.95901H70.6359V15.2886Z" fill="white"/>
<path d="M153.864 7.11206H150.209L143.996 22.7521H147.651L148.641 20.2642H153.137L156.059 17.4225H149.77L152.441 10.7033H153.463L158.253 22.7573H161.908L155.695 7.11726H153.87L153.864 7.11206Z" fill="white"/>
<path d="M180.159 7.11206H177.018L173.18 18.1303H172.811L168.974 7.11206H163.997V22.7521H167.668V13.5086H168.038L171.286 22.7521H175.021L177.959 13.5086H178.329V22.7521H182V7.11206H180.164H180.159Z" fill="white"/>
<path d="M41.0967 7.46598V9.9538V19.9103V21.6851V22.7521H56.3006V21.6851V19.9103V15.9964H52.5009V19.9103H44.8963V15.9964H52.5009V13.1547H44.8963V9.9538H52.5009V13.1547H56.3006V9.9538V7.46598V7.11206H41.0967V7.46598Z" fill="white"/>
<path d="M30.9585 12V6L24.7668 0H12.3834L6.19169 6V0L0 6V30H6.19169H24.7668L30.9585 24V18L27.862 15.0006L30.9585 12V12ZM24.7668 6V12H12.3834V18H24.7668L18.5751 24H12.3834L6.19169 30V6H24.7668V6Z" fill="white"/>
</svg>
