<svg width="2339" height="2823" viewBox="0 0 2339 2823" fill="none" xmlns="http://www.w3.org/2000/svg">
<path fillRule="evenodd" clipRule="evenodd" d="M582.318 1756.08C650.894 1759.54 715.739 1774.9 774.184 1802.63C833.704 1830.87 887.343 1869.06 930.939 1917.1C974.651 1963.74 1008.49 2018.9 1032.94 2079.03C1056.47 2136.9 1071.8 2199.38 1072.99 2265.7C1079.38 2349.39 1061.29 2428.4 1030.8 2500.78C998.146 2578.29 945.499 2643.91 881.57 2697.82L798.76 2755.28L683.848 2589.66L766.658 2532.2C814.081 2505.52 857.096 2471.11 886.581 2425C916.424 2378.33 936.878 2324.73 941.384 2265.7C942.261 2216.84 934.85 2169.57 916.891 2127.19C898.325 2083.35 868.654 2045.65 834.446 2013.59C800.328 1982.62 759.713 1959.39 715.662 1943.61C674.158 1928.75 629.051 1923.24 582.318 1925.61C439.42 1932.34 308.014 1877.84 210.907 1787.4C111.708 1694.99 52.4944 1562.08 49 1415.98C52.3408 1269.84 111.407 1136.71 210.664 1044.31C307.822 953.861 439.394 899.563 582.325 906.514C678.664 911.301 768.949 879.326 834.587 818.514C868.936 786.693 898.094 748.453 916.187 704.485C933.627 662.11 939.733 614.872 938.139 566.258C933.979 504.792 912.456 449.003 880.853 400.882C849.576 353.253 804.296 317.566 753.883 291.333L668.462 237.842L775.451 67L860.872 120.491C931.4 172.92 989.954 239.679 1026.99 319.627C1061.76 394.693 1082.22 477.938 1076.24 566.258C1074.06 632.869 1057.88 695.327 1033.64 753.234C1008.57 813.125 974.254 867.826 930.798 914.731C843.426 1009.03 720.744 1068.85 582.325 1075.73C490.511 1080.19 411.374 1124.51 353.269 1186.92C297.378 1246.96 263.918 1327.58 265.934 1415.98C263.822 1504.43 297.083 1585.23 353.019 1645.28C411.137 1707.69 490.491 1751.75 582.318 1756.08Z" fill="#C0C0C0" stroke="#C0C0C0" stroke-width="96"/>
<path fillRule="evenodd" clipRule="evenodd" d="M1045.8 1652.6H937L937.006 1435H1045.81C1209.01 1446.58 1355.81 1497.07 1464.69 1579.17C1557.12 1648.86 1622.77 1735.81 1652.51 1832.27C1666.11 1876.38 1674.39 1921.71 1672.08 1968.66C1677.95 2055.94 1728.87 2130.81 1803.97 2187.61C1901.03 2261.04 2041.72 2296.12 2194.09 2284.72H2302.89V2502.32H2194.09C2030.94 2490.48 1884.34 2439.76 1775.56 2357.6C1683.3 2287.93 1617.95 2201.08 1587.98 2104.82C1574.27 2060.8 1565.76 2015.56 1567.82 1968.66C1561.75 1881.46 1510.54 1806.97 1435.46 1750.23C1338.47 1676.92 1198.05 1641.44 1045.8 1652.6Z" fill="#FCFCFC" stroke="#FCFCFC" stroke-width="72"/>
<path fillRule="evenodd" clipRule="evenodd" d="M1262.61 1256.85H1169.83L1169.83 1071.3H1262.6C1323.32 1073.72 1379.56 1055.91 1426.43 1024.45C1448.07 1009.92 1469.09 995.029 1486.95 976.008C1516.32 944.725 1544.67 912.002 1558.02 869.512C1563.69 851.464 1567.17 832.655 1568.8 813.122C1567.4 791.944 1568.96 771.24 1570.03 750.69C1574.74 659.56 1604.09 575.605 1659.72 508.335C1731.2 421.903 1843.72 374.927 1964.5 369.385H2057.28L2057.28 554.94H1964.5C1894.52 551.836 1830.69 575.976 1779.8 616.399C1766.04 627.324 1751.78 637.103 1739.58 649.801C1709.78 680.821 1681.58 713.941 1668.42 756.597C1662.85 774.658 1659.74 793.583 1658.31 813.122C1659.9 834.319 1658.53 855.036 1657.57 875.624C1653.28 966.908 1623.61 1051.04 1567.84 1118.36C1496.25 1204.78 1383.47 1251.59 1262.61 1256.85Z" fill="#C0C0C0" stroke="#C0C0C0" stroke-width="72"/>
</svg>
